<?xml version="1.0" standalone="no"?>
<!DOCTYPE svg PUBLIC "-//W3C//DTD SVG 20010904//EN"
 "http://www.w3.org/TR/2001/REC-SVG-20010904/DTD/svg10.dtd">
<svg version="1.0" xmlns="http://www.w3.org/2000/svg"
 width="1376.000000pt" height="1376.000000pt" viewBox="0 0 1376.000000 1376.000000"
 preserveAspectRatio="xMidYMid meet">
<metadata>
Created by potrace 1.14, written by Peter Selinger 2001-2017
</metadata>
<g transform="translate(0.000000,1376.000000) scale(0.100000,-0.100000)"
fill="#000000" stroke="none">
<path d="M7347 13279 c7 -7 15 -10 18 -7 3 3 -2 9 -12 12 -14 6 -15 5 -6 -5z"/>
<path d="M7668 13223 c18 -2 45 -2 60 0 15 2 0 4 -33 4 -33 0 -45 -2 -27 -4z"/>
<path d="M7595 13210 c-3 -6 1 -7 9 -4 18 7 21 14 7 14 -6 0 -13 -4 -16 -10z"/>
<path d="M7768 13213 c7 -3 16 -2 19 1 4 3 -2 6 -13 5 -11 0 -14 -3 -6 -6z"/>
<path d="M7639 13190 c-25 -3 -59 -14 -74 -24 -19 -12 -30 -15 -33 -8 -2 6
-26 -19 -54 -56 -28 -37 -54 -68 -59 -70 -5 -2 -9 -8 -9 -13 0 -5 -16 -26 -35
-46 -19 -20 -35 -31 -35 -24 0 11 -3 11 -16 0 -8 -7 -13 -21 -11 -31 3 -10 2
-16 -3 -13 -15 9 -59 -63 -66 -106 -4 -24 -14 -53 -23 -63 -9 -11 -10 -16 -3
-12 6 4 12 2 12 -3 0 -6 -5 -11 -10 -11 -6 0 -10 -6 -8 -12 3 -19 -12 -91 -22
-103 -5 -6 -7 -34 -6 -63 2 -44 -3 -65 -30 -120 -19 -37 -34 -71 -34 -77 0 -5
-9 -28 -20 -50 -11 -22 -19 -45 -20 -51 -1 -38 -46 -92 -120 -144 -47 -33 -56
-45 -92 -120 -29 -62 -30 -69 -25 -165 7 -125 14 -169 27 -173 5 -2 10 -10 10
-18 0 -8 6 -17 13 -20 16 -6 21 -70 6 -79 -7 -5 -6 -12 2 -21 6 -8 8 -14 5
-14 -4 0 -1 -7 7 -15 20 -19 17 -34 -12 -71 -23 -28 -23 -28 -17 -4 7 23 6 24
-8 7 -8 -11 -12 -26 -9 -35 4 -13 3 -14 -5 -3 -11 15 -40 4 -63 -26 -12 -16
-12 -17 1 -6 10 8 21 9 30 3 15 -10 14 -10 -40 -15 -21 -1 -40 -14 -40 -28 0
-6 6 -3 13 8 23 31 29 0 8 -36 -11 -18 -18 -36 -15 -40 2 -4 -4 -6 -14 -4 -14
2 -18 -2 -17 -18 3 -32 -5 -47 -24 -47 -9 0 -12 -3 -6 -8 6 -4 11 -15 11 -25
1 -10 0 -16 -4 -13 -10 10 -30 -42 -28 -74 1 -17 -4 -36 -11 -42 -9 -7 -10
-14 -3 -23 8 -10 17 -40 19 -69 1 -5 8 -3 16 4 12 10 15 10 15 -1 0 -11 2 -11
10 1 7 12 9 10 7 -7 -1 -18 -4 -20 -15 -10 -11 9 -17 7 -27 -6 -10 -13 -14
-15 -18 -5 -3 10 -9 9 -24 -5 -12 -10 -42 -19 -74 -22 -111 -9 -155 -18 -217
-48 -69 -33 -87 -57 -120 -165 -45 -143 -24 -227 82 -336 40 -42 71 -78 69
-80 -3 -2 22 -21 54 -41 32 -21 59 -41 61 -46 6 -16 160 -73 247 -91 50 -10
142 -21 205 -25 105 -5 139 -1 205 22 16 6 16 3 -5 -15 l-25 -21 30 14 c17 8
38 13 47 12 10 -2 20 1 24 6 5 9 -7 12 -36 10 -8 0 -5 4 8 11 17 8 36 8 77 -1
30 -7 55 -16 55 -21 0 -5 -37 -41 -82 -80 -153 -132 -314 -340 -369 -476 -6
-16 -15 -38 -20 -49 -36 -90 -72 -355 -48 -355 5 0 5 -7 2 -17 -4 -9 -2 -14 3
-11 5 4 9 -25 10 -65 0 -40 2 -99 3 -132 1 -33 0 -68 -2 -79 -2 -10 0 -37 4
-60 4 -22 12 -70 19 -106 6 -35 17 -78 24 -95 7 -16 19 -50 26 -75 6 -25 20
-64 31 -88 10 -23 19 -47 19 -52 0 -6 11 -27 23 -48 40 -63 41 -132 1 -132 -8
0 -17 -7 -20 -15 -4 -8 -11 -15 -17 -15 -16 0 -136 -128 -154 -165 -8 -16 -26
-45 -40 -62 -13 -18 -19 -33 -13 -33 7 0 5 -7 -4 -16 -17 -16 -19 -26 -17 -59
2 -17 0 -18 -9 -5 -9 12 -11 10 -7 -12 2 -16 1 -28 -4 -28 -4 0 -6 -11 -3 -25
2 -14 0 -25 -6 -25 -6 0 -8 -4 -5 -10 3 -6 2 -10 -4 -10 -5 0 -10 -8 -9 -17 0
-10 -3 -36 -6 -58 -19 -116 2 -388 39 -520 8 -27 17 -63 20 -80 7 -30 78 -208
95 -235 5 -8 23 -42 41 -75 31 -59 67 -111 101 -149 18 -20 17 -60 -2 -96 -5
-9 -14 -55 -21 -103 -7 -48 -16 -87 -21 -87 -4 0 -8 -4 -8 -10 0 -5 6 -10 14
-10 10 0 14 -13 14 -45 0 -28 -4 -45 -11 -45 -7 0 -6 -4 3 -10 10 -7 12 -12 4
-17 -6 -5 -11 -21 -10 -38 1 -16 -3 -36 -8 -43 -7 -9 -5 -16 4 -22 8 -5 11
-12 7 -16 -4 -4 -2 -13 4 -20 9 -10 7 -15 -5 -20 -9 -3 -16 -15 -16 -27 0 -11
-3 -17 -6 -14 -4 3 -15 2 -25 -4 -19 -10 -123 13 -144 32 -5 5 -20 9 -34 9
-13 0 -32 7 -42 16 -9 8 -37 17 -61 19 -23 2 -43 5 -43 5 0 8 -80 13 -117 7
-17 -2 -28 0 -28 7 0 7 -3 8 -8 1 -7 -11 -51 -17 -107 -14 -102 4 -135 3 -135
-3 0 -5 -5 -8 -11 -8 -5 0 -7 4 -4 10 4 6 -1 7 -10 3 -10 -3 -21 0 -27 8 -8
11 -8 10 -4 -5 6 -16 2 -18 -29 -12 -23 5 -35 3 -35 -4 0 -6 5 -8 12 -4 7 4 8
3 4 -4 -5 -9 -13 -9 -28 -1 -13 7 -18 7 -14 1 3 -6 2 -14 -4 -17 -6 -4 -9 -1
-8 6 2 6 -3 14 -11 17 -10 3 -11 0 -5 -9 6 -11 3 -10 -11 1 -10 8 -16 10 -12
4 4 -7 0 -14 -8 -18 -8 -3 -15 0 -15 7 0 8 -3 8 -9 -2 -6 -10 -10 -10 -16 -1
-6 9 -10 9 -16 -1 -7 -11 -9 -11 -9 -1 0 10 -5 10 -22 1 -13 -7 -24 -12 -25
-11 -2 1 -4 2 -5 1 -2 0 -12 -2 -23 -4 -10 -2 -28 -8 -40 -14 -11 -5 -38 -15
-59 -22 -39 -12 -136 -64 -146 -79 -18 -27 -111 -32 -127 -7 -3 6 -1 7 6 3 6
-4 0 12 -14 36 -33 57 -36 61 -60 74 -11 6 -20 17 -20 24 0 7 -9 16 -20 21
-11 4 -17 8 -12 8 11 1 -31 41 -44 41 -5 0 -8 4 -5 8 3 5 -6 15 -19 22 -14 7
-27 21 -31 32 -3 10 -14 18 -24 18 -10 0 -25 7 -33 15 -8 8 -17 12 -20 9 -3
-3 -11 3 -18 14 -7 11 -18 18 -24 15 -14 -5 -95 35 -95 46 0 4 -28 20 -62 35
-35 16 -82 37 -105 48 -23 11 -47 17 -53 13 -5 -3 -10 -1 -10 4 0 6 -3 10 -7
9 -5 -1 -30 5 -58 14 -157 50 -193 56 -370 64 -66 3 -136 7 -155 8 -19 1 -40
-2 -47 -6 -7 -6 -19 -5 -31 1 -13 7 -22 7 -30 -1 -9 -9 -12 -9 -12 -1 0 12
-18 12 -36 0 -7 -4 -23 -7 -35 -7 -83 -1 -119 -4 -119 -13 0 -5 -9 -7 -20 -4
-11 3 -18 2 -15 -3 3 -4 -2 -11 -11 -14 -8 -3 -12 -2 -9 4 3 6 2 10 -4 10 -5
0 -12 -4 -16 -9 -3 -5 -19 -12 -35 -16 -17 -4 -30 -10 -30 -14 0 -5 -14 -7
-31 -5 -18 2 -28 0 -24 -6 3 -6 -1 -10 -10 -10 -9 0 -29 -8 -43 -19 -15 -10
-40 -21 -57 -25 -16 -4 -38 -15 -47 -23 -10 -9 -18 -13 -18 -9 0 4 -10 0 -21
-8 -12 -8 -28 -12 -35 -9 -9 3 -14 -2 -14 -13 0 -9 -3 -14 -7 -11 -3 4 -12 2
-20 -4 -7 -6 -13 -8 -13 -3 0 4 -7 -1 -16 -12 -8 -10 -12 -12 -8 -4 6 12 3 11
-12 -2 -10 -9 -21 -16 -24 -16 -12 2 -50 -14 -50 -21 0 -4 -18 -14 -40 -21
-23 -8 -45 -21 -50 -29 -5 -9 -10 -13 -10 -9 0 4 -16 -4 -36 -17 -20 -14 -43
-25 -50 -25 -8 0 -14 -4 -14 -8 0 -5 -12 -15 -27 -23 -35 -19 -93 -76 -85 -84
3 -3 -1 -3 -11 1 -11 4 -17 1 -17 -8 0 -19 -42 -58 -63 -58 -9 0 -17 -7 -17
-15 0 -8 -4 -15 -10 -15 -5 0 -10 -6 -10 -12 -1 -7 -19 -25 -40 -40 -22 -15
-40 -35 -40 -43 0 -8 -5 -15 -11 -15 -5 0 -7 -4 -4 -10 3 -5 -1 -10 -9 -10 -9
0 -23 -12 -33 -27 -10 -16 -23 -34 -30 -40 -6 -7 -15 -27 -18 -45 -4 -18 -18
-53 -31 -78 -58 -112 -81 -258 -61 -400 5 -30 8 -131 7 -224 0 -113 3 -173 11
-182 9 -11 8 -14 -4 -14 -28 0 -162 -75 -235 -131 -50 -38 -84 -74 -114 -122
-96 -152 -120 -185 -155 -213 -20 -16 -52 -45 -72 -65 -94 -94 -291 -251 -406
-324 -33 -21 -84 -58 -112 -83 -29 -24 -53 -41 -53 -37 0 4 -18 -15 -40 -41
-41 -50 -79 -121 -100 -189 -7 -22 -29 -62 -48 -89 -65 -92 -200 -261 -237
-296 -50 -47 -98 -123 -133 -212 -61 -150 -62 -158 -62 -415 0 -138 5 -255 11
-278 19 -71 56 -139 123 -225 48 -64 62 -88 54 -98 -6 -7 -8 -16 -4 -20 7 -7
11 -8 39 -11 9 -1 8 -4 -2 -10 -15 -10 -7 -31 13 -31 7 0 18 -10 23 -22 6 -13
34 -49 63 -81 57 -62 145 -111 255 -141 33 -9 69 -21 80 -26 77 -33 214 -83
290 -104 503 -142 509 -143 589 -151 23 -2 67 -7 98 -11 32 -3 102 -1 155 5
54 7 109 13 123 15 14 1 31 5 36 9 6 3 35 8 65 11 30 2 70 7 89 10 19 3 49 7
65 10 65 9 111 19 122 28 6 5 24 13 40 17 15 5 37 12 47 17 15 6 17 4 11 -7
-8 -12 -6 -12 8 0 24 20 134 70 140 64 3 -2 16 1 29 8 12 7 37 15 53 17 59 9
481 10 550 1 39 -5 94 -11 123 -14 30 -3 62 -10 72 -15 10 -6 29 -10 42 -10
13 0 28 -4 33 -8 6 -5 44 -18 85 -31 41 -12 83 -27 92 -32 10 -5 25 -9 33 -9
9 0 18 -6 21 -13 4 -11 137 -13 752 -11 411 1 783 5 827 7 44 3 143 8 220 12
165 7 280 14 315 20 14 2 66 11 115 19 50 8 104 17 120 20 76 11 172 27 195
32 14 3 110 5 213 4 l189 -1 66 -34 c54 -27 92 -60 197 -170 290 -304 287
-301 365 -343 266 -141 264 -141 392 -164 148 -26 160 -26 443 -2 33 2 188 7
345 9 157 3 302 7 322 9 21 2 95 7 165 11 71 3 151 8 178 10 101 7 211 16 260
21 92 9 185 9 185 0 0 -6 5 -5 12 2 8 8 17 8 31 1 14 -8 18 -8 13 0 -4 6 -2
11 3 11 6 0 11 -4 11 -10 0 -5 7 -10 15 -10 8 0 15 4 15 9 0 29 154 -2 173
-35 5 -8 13 -11 19 -8 6 4 13 2 17 -3 3 -6 40 -26 81 -46 41 -19 120 -56 175
-82 55 -26 115 -49 133 -52 17 -3 32 -9 32 -13 0 -3 15 -6 33 -6 17 0 66 -4
107 -8 41 -5 122 -10 180 -12 58 -2 125 -6 150 -8 69 -8 178 -12 175 -6 -2 3
10 6 26 7 16 1 29 -2 29 -7 0 -4 13 -3 30 3 21 8 44 8 79 1 27 -6 48 -7 46 -4
-2 4 5 12 15 20 10 8 17 17 14 21 -2 4 7 6 21 4 14 -1 28 2 31 7 14 22 154 55
154 36 0 -4 47 39 105 98 57 58 110 104 117 102 15 -5 59 32 52 44 -3 4 2 8
11 8 9 0 14 4 10 9 -3 6 -32 -8 -65 -30 -70 -47 -92 -52 -29 -8 53 38 189 152
244 204 l40 38 6 -34 c3 -19 10 -44 17 -55 6 -12 8 -25 4 -29 -4 -5 -2 -5 5
-1 9 5 9 14 -2 39 -23 57 -25 114 -4 139 11 11 19 24 19 28 0 3 22 29 50 58
57 59 68 83 100 210 19 78 22 109 16 180 -15 199 -28 244 -109 369 -24 37 -51
80 -60 95 -18 28 -32 118 -19 118 4 0 7 11 7 25 0 14 -3 25 -6 25 -3 0 -5 17
-3 38 1 20 4 58 6 84 2 27 7 48 11 48 5 0 5 6 0 13 -4 6 -6 21 -4 31 2 14 -2
17 -13 13 -14 -6 -15 -3 -6 13 12 22 4 98 -11 117 -6 6 -9 17 -8 25 3 17 -11
51 -25 60 -7 5 -7 8 2 8 6 0 12 5 12 12 0 6 -3 8 -7 5 -9 -9 -33 49 -33 79 0
13 -4 24 -10 24 -5 0 -10 7 -10 15 0 8 -4 15 -9 15 -7 0 -23 34 -23 50 0 3 -4
61 -8 130 -7 110 -13 141 -53 260 -65 195 -88 239 -166 313 -91 86 -123 109
-215 156 -62 32 -83 38 -98 30 -26 -14 -108 11 -173 53 -63 40 -37 35 -340 78
-92 13 -316 28 -539 36 -209 7 -298 25 -378 77 -91 59 -112 87 -136 178 l-22
81 35 39 c19 22 35 43 35 48 0 18 52 71 62 64 6 -3 8 -1 4 5 -7 11 189 199
205 194 5 -1 8 3 7 10 -2 7 4 12 12 13 8 0 15 5 15 10 2 30 67 115 83 107 3
-1 7 4 8 12 1 9 18 35 37 58 55 68 82 118 111 200 52 152 29 307 -72 468 -59
95 -215 220 -274 220 -10 0 -18 7 -18 18 -3 238 -42 399 -135 562 -23 41 -25
52 -19 116 3 39 7 194 8 345 2 193 7 283 15 304 23 53 26 232 6 321 -28 130
-95 294 -155 384 -6 8 -13 23 -16 33 -4 9 -10 17 -15 17 -4 0 -7 9 -6 21 1 14
7 19 19 16 11 -3 18 0 18 8 0 7 5 15 10 17 6 2 12 13 13 25 0 12 5 19 9 17 5
-3 6 -11 2 -17 -3 -7 5 0 19 14 13 15 27 46 31 70 5 33 9 40 16 29 8 -12 10
-9 10 12 0 15 5 30 12 34 7 5 8 3 3 -6 -5 -9 -4 -11 4 -6 9 6 9 11 -1 24 -8 9
-8 13 -1 9 12 -7 37 49 28 63 -3 5 -1 10 4 12 14 5 79 205 71 218 -4 7 1 39
10 71 14 45 15 59 5 59 -8 0 -11 10 -8 28 3 19 2 23 -5 13 -7 -10 -11 -10 -17
-1 -6 9 -9 9 -15 0 -5 -8 -9 -7 -13 5 -4 9 -3 13 3 10 6 -3 10 0 10 8 0 8 13
32 28 53 16 21 41 64 56 96 15 31 30 59 34 63 4 4 7 10 7 13 1 4 6 16 12 27 6
11 9 28 8 38 -2 9 0 17 3 17 9 0 10 14 16 170 7 147 -5 208 -77 400 -42 113
-150 244 -231 281 -40 19 -33 39 15 39 43 0 71 -11 104 -41 11 -9 44 -30 74
-45 48 -24 62 -26 124 -21 58 5 81 13 140 48 129 77 169 140 168 264 -1 63 -6
85 -35 147 -20 40 -35 69 -36 64 0 -6 -6 -1 -14 9 -8 11 -12 24 -9 29 4 5 2 6
-4 3 -11 -7 -76 56 -68 66 3 4 2 5 -1 3 -3 -3 -27 9 -52 25 -25 16 -51 29 -58
29 -18 0 -76 100 -71 121 3 11 1 17 -4 13 -5 -3 -10 1 -10 8 -5 43 -7 57 -17
88 -7 19 -11 37 -10 40 1 3 -4 15 -10 27 -8 14 -9 24 -2 28 5 3 10 12 9 18 0
9 -2 8 -6 -1 -2 -7 -12 -16 -21 -21 -14 -7 -17 -4 -18 20 -1 16 3 29 8 29 5 0
6 -5 2 -12 -5 -7 -3 -8 5 -3 9 5 10 10 2 18 -18 18 -13 36 8 32 18 -3 19 -1 9
21 -13 27 -23 31 -31 10 -4 -10 -1 -13 9 -9 7 3 14 1 14 -4 0 -5 -9 -9 -21
-10 -14 -1 -19 3 -15 12 3 8 1 17 -5 20 -5 4 -7 11 -4 16 4 5 1 9 -4 9 -10 0
-15 -14 -12 -32 0 -5 -4 -8 -10 -8 -6 0 -8 9 -4 21 5 16 4 19 -5 14 -9 -6 -11
-4 -4 6 4 8 9 25 10 39 2 36 2 37 19 37 11 0 12 -3 3 -14 -9 -11 -8 -13 3 -11
8 2 19 9 25 17 14 18 22 -1 19 -47 -2 -41 10 -30 23 21 10 34 9 38 -5 33 -13
-5 -14 -4 -3 9 7 9 9 22 5 32 -11 24 -17 53 -18 81 -1 12 -5 22 -10 22 -5 0
-7 6 -4 14 3 8 2 16 -2 18 -14 5 7 48 23 48 8 0 27 5 43 12 15 6 30 12 33 12
14 3 30 19 30 29 0 7 -6 4 -14 -5 -7 -10 -16 -15 -19 -11 -8 7 23 32 40 33 8
0 10 -7 6 -17 -4 -14 -3 -15 6 -7 7 6 14 20 15 30 2 12 10 18 21 16 10 -2 14
1 10 7 -3 6 0 11 7 11 9 0 9 3 -2 10 -11 7 -12 10 -2 10 13 0 42 23 42 34 0 2
-13 1 -28 -4 -20 -5 -29 -4 -29 4 0 13 46 15 66 2 10 -6 12 -5 7 2 -4 7 -2 12
4 12 6 0 8 5 5 11 -4 6 0 9 11 7 12 -2 18 2 16 10 -1 8 2 11 7 7 6 -3 8 -13 5
-23 -5 -15 -5 -16 5 -1 7 11 23 16 45 15 23 -1 32 3 29 11 -4 9 0 11 11 7 10
-4 18 0 22 10 3 9 10 14 14 11 5 -3 14 1 22 8 7 7 25 21 40 31 15 10 26 22 23
26 -3 5 4 12 16 15 11 4 18 9 15 12 -6 7 37 52 45 47 4 -2 6 4 5 14 0 10 5 16
13 14 11 -2 12 0 3 11 -10 11 -9 17 2 27 9 6 21 8 28 4 7 -4 10 -4 6 1 -4 4 4
24 17 44 23 33 24 36 8 43 -14 5 -14 7 -3 7 8 1 21 10 27 21 11 17 10 18 -5
13 -9 -3 -14 -3 -10 2 4 4 2 15 -5 23 -10 13 -9 14 9 4 16 -9 21 -8 21 3 0 8
-4 12 -8 10 -4 -3 -5 5 -1 17 4 16 2 19 -9 13 -8 -5 -6 1 5 13 10 12 22 19 27
17 4 -3 11 -1 14 5 4 6 1 9 -7 8 -10 -2 -13 17 -12 87 1 56 5 89 12 88 12 -3
10 23 -3 34 -4 5 -5 1 0 -7 5 -9 4 -12 -1 -7 -4 4 -9 22 -10 40 -2 35 -10 83
-29 181 -6 32 -5 38 6 32 9 -5 8 -2 -2 6 -17 15 -34 52 -19 43 6 -3 7 1 4 9
-3 9 -10 16 -16 16 -5 0 -7 4 -4 9 3 5 0 11 -8 14 -9 4 -12 14 -9 26 3 14 0
23 -11 27 -9 3 -13 10 -10 15 3 5 0 9 -6 9 -6 0 -8 5 -5 10 3 6 2 10 -3 10 -5
0 -9 6 -10 13 -1 21 -26 81 -43 105 -9 13 -14 32 -12 43 4 15 0 22 -16 26 -11
3 -21 9 -21 14 0 5 -7 9 -15 9 -8 0 -15 5 -15 11 0 5 -5 7 -12 3 -6 -4 -8 -3
-4 4 8 13 -165 187 -208 209 -17 9 -34 21 -38 27 -4 6 -8 7 -8 3 0 -5 -20 3
-45 17 -25 15 -45 24 -45 21 0 -3 -13 1 -30 10 -16 8 -37 15 -47 15 -10 0 -31
7 -47 15 -15 8 -39 15 -52 15 -13 0 -24 5 -24 11 0 6 -7 9 -15 6 -8 -4 -17 -2
-20 3 -4 6 2 10 11 10 10 0 14 3 11 7 -4 3 -19 0 -33 -7 -22 -12 -27 -12 -34
0 -6 8 -10 10 -10 5 0 -6 -9 -11 -21 -12 -17 -2 -18 1 -8 13 10 12 10 15 -2
12 -8 -2 -19 -9 -25 -17 -9 -11 -12 -12 -19 -1 -5 9 -4 11 3 6 7 -4 12 -2 12
3 0 12 -23 15 -34 4 -3 -4 -17 -8 -29 -10 -17 -2 -19 -1 -7 7 12 8 9 9 -12 8
-15 -1 -24 -6 -22 -10 3 -4 -3 -8 -13 -9 -10 0 -27 -2 -37 -4 -55 -10 -88 -9
-97 5 -9 12 -10 12 -5 -3 3 -11 1 -17 -7 -15 -17 3 -51 -9 -123 -43 -34 -16
-67 -29 -73 -29 -6 0 -11 -5 -11 -11 0 -5 -5 -7 -10 -4 -6 3 -13 -1 -16 -9 -3
-9 -9 -14 -13 -11 -4 2 -24 -5 -44 -15 -41 -22 -57 -25 -57 -10 0 6 3 9 8 9 4
-1 13 -1 21 0 26 2 0 16 -32 17 -101 6 -212 18 -212 24 0 1 -36 3 -80 5 -44 1
-93 5 -107 8 -15 4 -30 3 -33 -3 -10 -16 -25 -12 -26 8 0 10 -3 12 -6 5 -2 -7
-9 -13 -14 -13 -6 0 -7 6 -3 13 5 7 0 6 -11 -3 -11 -9 -16 -10 -11 -2 4 6 2
12 -3 12 -6 0 -11 -6 -11 -12 0 -7 -5 -5 -11 5 -5 9 -17 17 -25 17 -8 0 -13
-4 -10 -8 6 -10 -45 -9 -61 1 -7 5 -18 5 -25 1 -7 -4 -8 -3 -4 5 5 8 0 10 -19
7 -21 -4 -24 -2 -16 8 8 10 4 16 -14 26 -20 11 -95 14 -340 14 -173 0 -315 2
-315 6 0 3 -15 5 -34 4 -20 -2 -39 3 -46 11 -9 11 -38 14 -117 14 -60 0 -110
5 -118 11 -9 7 -15 6 -24 -3 -6 -8 -8 -17 -4 -20 3 -4 -1 -7 -10 -7 -9 0 -17
6 -17 13 0 8 -3 8 -8 2 -4 -6 -13 -10 -19 -9 -7 1 -19 2 -25 3 -23 3 21 22 52
23 48 2 35 25 -27 47 -32 12 -80 32 -108 45 -27 13 -61 29 -75 34 -38 16 -149
28 -201 22z m341 -174 c0 -2 -11 -6 -25 -8 -13 -3 -22 -1 -19 3 5 9 44 13 44
5z m1516 -128 c3 -4 -1 -5 -10 -4 -8 1 -18 5 -22 8 -3 4 1 5 10 4 8 -1 18 -5
22 -8z m56 -7 c-3 -9 -7 -11 -9 -4 -3 7 -11 9 -19 6 -8 -3 -14 -1 -14 4 0 5
11 9 24 9 17 0 22 -4 18 -15z m181 -28 c-7 -2 -21 -2 -30 0 -10 3 -4 5 12 5
17 0 24 -2 18 -5z m1562 -1262 c3 -5 2 -12 -3 -15 -5 -3 -9 1 -9 9 0 17 3 19
12 6z m-20 -42 c-4 -5 -12 -9 -18 -8 -9 0 -8 2 1 6 6 2 9 10 6 15 -4 7 -2 8 5
4 6 -4 9 -12 6 -17z m-165 -189 c0 -5 -5 -10 -11 -10 -5 0 -7 5 -4 10 3 6 8
10 11 10 2 0 4 -4 4 -10z m-335 -120 c-3 -5 -12 -10 -18 -10 -7 0 -6 4 3 10
19 12 23 12 15 0z m-277 -295 c-3 -3 -9 2 -12 12 -6 14 -5 15 5 6 7 -7 10 -15
7 -18z m-3694 -81 c3 -8 2 -12 -4 -9 -6 3 -10 10 -10 16 0 14 7 11 14 -7z m71
-4 c-3 -5 -12 -10 -18 -10 -7 0 -6 4 3 10 19 12 23 12 15 0z m3712 -182 c-3
-8 -6 -5 -6 6 -1 11 2 17 5 13 3 -3 4 -12 1 -19z m-287 -2938 c0 -5 -5 -10
-11 -10 -5 0 -7 5 -4 10 3 6 8 10 11 10 2 0 4 -4 4 -10z m-26 -18 c3 -5 -1 -9
-9 -9 -8 0 -12 4 -9 9 3 4 7 8 9 8 2 0 6 -4 9 -8z m-38 -47 c-15 -14 -31 -25
-36 -25 -4 0 -11 -6 -13 -12 -4 -10 -6 -10 -6 -1 -1 7 16 24 36 38 48 32 53
32 19 0z"/>
<path d="M7419 13063 c-13 -16 -12 -17 4 -4 16 13 21 21 13 21 -2 0 -10 -8
-17 -17z"/>
<path d="M10556 13003 c-11 -11 -6 -23 9 -23 8 0 15 4 15 9 0 13 -16 22 -24
14z"/>
<path d="M10790 12911 c0 -5 5 -13 10 -16 6 -3 10 -2 10 4 0 5 -4 13 -10 16
-5 3 -10 2 -10 -4z"/>
<path d="M11338 12123 c5 -21 7 -23 10 -9 2 10 0 22 -6 28 -6 6 -7 0 -4 -19z"/>
<path d="M11355 11841 c-3 -6 -1 -11 4 -11 6 0 11 -8 11 -17 0 -16 -2 -16 -11
-3 -7 10 -9 11 -7 2 2 -8 8 -14 13 -14 6 0 16 -5 24 -11 10 -8 9 -1 -4 23 -22
44 -22 43 -30 31z"/>
<path d="M6725 11240 c-3 -5 1 -10 10 -10 9 0 13 5 10 10 -3 6 -8 10 -10 10
-2 0 -7 -4 -10 -10z"/>
<path d="M6652 10935 c4 -4 3 -14 -3 -21 -7 -8 -7 -14 1 -19 5 -3 10 -5 11 -3
6 27 5 39 -4 45 -7 3 -9 3 -5 -2z"/>
<path d="M10583 10791 c0 -10 8 -18 17 -17 8 1 14 -5 12 -14 -2 -8 0 -11 4 -7
16 16 12 37 -7 37 -11 0 -17 5 -14 10 3 6 2 10 -4 10 -5 0 -9 -8 -8 -19z"/>
<path d="M10916 10226 c3 -9 13 -16 22 -16 8 0 13 1 11 3 -2 1 -12 9 -22 16
-15 12 -17 12 -11 -3z"/>
<path d="M7265 10029 c-4 -6 -5 -12 -2 -15 2 -3 7 2 10 11 7 17 1 20 -8 4z"/>
<path d="M10460 9681 c25 -16 64 -47 88 -69 l42 -39 -2 29 c-1 18 -7 27 -14
24 -13 -5 -84 56 -84 71 0 5 -17 10 -37 11 l-38 3 45 -30z"/>
<path d="M6292 5971 c-11 -7 -11 -9 2 -14 10 -4 16 -1 16 8 0 17 -1 17 -18 6z"/>
<path d="M6597 5959 c7 -7 15 -10 18 -7 3 3 -2 9 -12 12 -14 6 -15 5 -6 -5z"/>
<path d="M10816 4653 c-6 -14 -5 -15 5 -6 7 7 10 15 7 18 -3 3 -9 -2 -12 -12z"/>
<path d="M3316 1364 c-17 -12 -17 -14 -4 -14 9 0 20 5 23 11 11 17 2 18 -19 3z"/>
<path d="M12475 839 c-4 -6 -5 -12 -2 -15 2 -3 7 2 10 11 7 17 1 20 -8 4z"/>
<path d="M11745 450 c-3 -5 -1 -10 4 -10 6 0 11 5 11 10 0 6 -2 10 -4 10 -3 0
-8 -4 -11 -10z"/>
</g>
</svg>
